<?xml version="1.0" encoding="UTF-8" standalone="no"?>
<!DOCTYPE svg PUBLIC "-//W3C//DTD SVG 1.1//EN"
 "http://www.w3.org/Graphics/SVG/1.1/DTD/svg11.dtd">
<!-- Generated by graphviz version 2.42.4 (0)
 -->
<!-- Pages: 1 -->
<svg width="414pt" height="260pt"
 viewBox="0.00 0.00 413.54 260.00" xmlns="http://www.w3.org/2000/svg" xmlns:xlink="http://www.w3.org/1999/xlink">
<g id="graph0" class="graph" transform="scale(1 1) rotate(0) translate(4 256)">
<polygon fill="white" stroke="transparent" points="-4,4 -4,-256 409.54,-256 409.54,4 -4,4"/>
<!-- s -->
<g id="node1" class="node">
<title>s</title>
<ellipse fill="none" stroke="black" cx="265.99" cy="-234" rx="37.09" ry="18"/>
<text text-anchor="middle" x="265.99" y="-230.3" font-family="Times,serif" font-size="14.00">Subject</text>
</g>
<!-- o -->
<g id="node2" class="node">
<title>o</title>
<ellipse fill="none" stroke="black" cx="236.99" cy="-90" rx="34.39" ry="18"/>
<text text-anchor="middle" x="236.99" y="-86.3" font-family="Times,serif" font-size="14.00">Object</text>
</g>
<!-- s&#45;&#45;o -->
<g id="edge1" class="edge">
<title>s&#45;&#45;o</title>
<path fill="none" stroke="black" stroke-dasharray="5,2" d="M262.5,-215.87C256.92,-188.58 246.09,-135.52 240.5,-108.19"/>
</g>
<!-- c -->
<g id="node3" class="node">
<title>c</title>
<ellipse fill="none" stroke="black" cx="183.99" cy="-162" rx="53.89" ry="18"/>
<text text-anchor="middle" x="183.99" y="-158.3" font-family="Times,serif" font-size="14.00">Community</text>
</g>
<!-- s&#45;&#45;c -->
<g id="edge2" class="edge">
<title>s&#45;&#45;c</title>
<path fill="none" stroke="black" d="M248.2,-217.81C234.82,-206.39 216.53,-190.78 202.89,-179.13"/>
</g>
<!-- m -->
<g id="node4" class="node">
<title>m</title>
<ellipse fill="none" stroke="black" cx="249.99" cy="-18" rx="76.09" ry="18"/>
<text text-anchor="middle" x="249.99" y="-14.3" font-family="Times,serif" font-size="14.00">Mediating artefact</text>
</g>
<!-- s&#45;&#45;m -->
<g id="edge3" class="edge">
<title>s&#45;&#45;m</title>
<path fill="none" stroke="gray" d="M271.28,-215.75C279.58,-185.93 293.43,-123.01 279.99,-72 276.6,-59.12 269.28,-46.08 262.72,-36.15"/>
</g>
<!-- r -->
<g id="node5" class="node">
<title>r</title>
<ellipse fill="none" stroke="black" cx="374.99" cy="-18" rx="30.59" ry="18"/>
<text text-anchor="middle" x="374.99" y="-14.3" font-family="Times,serif" font-size="14.00">Rules</text>
</g>
<!-- s&#45;&#45;r -->
<g id="edge4" class="edge">
<title>s&#45;&#45;r</title>
<path fill="none" stroke="gray" d="M276.1,-216.48C282.33,-206.12 290.37,-192.41 296.99,-180 324.63,-128.21 353.97,-65.14 367.44,-35.67"/>
</g>
<!-- d -->
<g id="node6" class="node">
<title>d</title>
<ellipse fill="none" stroke="black" cx="77.99" cy="-18" rx="77.99" ry="18"/>
<text text-anchor="middle" x="77.99" y="-14.3" font-family="Times,serif" font-size="14.00"> Division of labour</text>
</g>
<!-- s&#45;&#45;d -->
<g id="edge5" class="edge">
<title>s&#45;&#45;d</title>
<path fill="none" stroke="gray" d="M230.13,-229.23C197.19,-223.87 149.3,-210.96 120.99,-180 83.51,-139.01 78.06,-68.94 77.68,-36.47"/>
</g>
<!-- o&#45;&#45;m -->
<g id="edge10" class="edge">
<title>o&#45;&#45;m</title>
<path fill="none" stroke="gray" d="M240.14,-72.05C242.15,-61.21 244.76,-47.18 246.78,-36.28"/>
</g>
<!-- o&#45;&#45;r -->
<g id="edge12" class="edge">
<title>o&#45;&#45;r</title>
<path fill="none" stroke="gray" d="M261.03,-76.81C286.82,-63.72 327.46,-43.11 352.6,-30.36"/>
</g>
<!-- o&#45;&#45;d -->
<g id="edge11" class="edge">
<title>o&#45;&#45;d</title>
<path fill="none" stroke="gray" d="M211.45,-77.75C184.67,-65.97 142.44,-47.37 112.67,-34.27"/>
</g>
<!-- c&#45;&#45;o -->
<g id="edge6" class="edge">
<title>c&#45;&#45;o</title>
<path fill="none" stroke="black" stroke-dasharray="5,2" d="M196.55,-144.41C205.12,-133.09 216.42,-118.18 224.89,-106.99"/>
</g>
<!-- c&#45;&#45;m -->
<g id="edge7" class="edge">
<title>c&#45;&#45;m</title>
<path fill="none" stroke="gray" d="M182.55,-143.96C181.7,-125.3 182.55,-94.96 193.99,-72 201.34,-57.26 214.55,-44.45 226.3,-35.12"/>
</g>
<!-- c&#45;&#45;r -->
<g id="edge8" class="edge">
<title>c&#45;&#45;r</title>
<path fill="none" stroke="gray" d="M214.13,-146.8C233.64,-137.03 259.2,-123.11 279.99,-108 311.43,-85.14 343.51,-52.82 361.18,-34.08"/>
</g>
<!-- c&#45;&#45;d -->
<g id="edge9" class="edge">
<title>c&#45;&#45;d</title>
<path fill="none" stroke="gray" d="M171.63,-144.43C151.31,-117.22 111.09,-63.33 90.61,-35.9"/>
</g>
</g>
</svg>
